<?xml version="1.0" standalone="no"?>
<!DOCTYPE svg PUBLIC "-//W3C//DTD SVG 20010904//EN"
 "http://www.w3.org/TR/2001/REC-SVG-20010904/DTD/svg10.dtd">
<svg version="1.0" xmlns="http://www.w3.org/2000/svg"
 width="512.000000pt" height="512.000000pt" viewBox="0 0 512.000000 512.000000"
 preserveAspectRatio="xMidYMid meet">
<metadata>
Created by potrace 1.14, written by Peter Selinger 2001-2017
</metadata>
<g transform="translate(0.000000,512.000000) scale(0.100000,-0.100000)"
fill="#000000" stroke="none">
<path d="M685 4465 c-76 -21 -116 -40 -174 -83 -106 -80 -178 -211 -188 -346
-5 -59 -4 -66 20 -90 l26 -26 311 0 311 0 24 25 c30 29 32 74 6 106 -19 24
-21 24 -275 29 l-256 5 24 51 c90 195 358 241 511 89 21 -21 49 -63 64 -94
l26 -56 0 -1550 c0 -1439 -1 -1554 -17 -1606 -42 -134 -129 -194 -278 -193
-159 1 -275 75 -318 202 l-11 32 250 0 250 0 24 25 c33 32 33 78 0 110 l-24
25 -311 0 -311 0 -24 -25 c-28 -27 -32 -70 -14 -157 38 -182 182 -324 366
-363 105 -23 3092 -22 3178 0 130 34 244 122 303 233 60 112 62 134 62 600 l0
423 -25 24 c-29 30 -74 32 -106 6 l-24 -19 -5 -444 -5 -443 -25 -50 c-31 -64
-91 -124 -155 -155 l-50 -25 -1332 -3 -1332 -2 25 43 c13 24 34 71 47 103 l22
59 3 1555 c2 1137 0 1571 -8 1615 -14 69 -50 152 -87 195 l-25 30 1338 -2
1339 -3 57 -28 c65 -32 121 -89 152 -156 20 -44 21 -65 26 -417 5 -348 6 -373
24 -393 27 -30 86 -28 115 3 l22 23 -3 384 c-3 376 -4 385 -27 442 -50 125
-159 231 -288 280 l-58 22 -1560 2 c-1296 2 -1568 0 -1610 -12z"/>
<path d="M1945 3815 c-16 -15 -25 -36 -25 -55 0 -19 9 -40 25 -55 l24 -25 751
0 751 0 24 25 c33 32 33 78 0 110 l-24 25 -751 0 -751 0 -24 -25z"/>
<path d="M4672 3447 c-48 -46 -114 -102 -147 -122 -185 -119 -490 -222 -800
-270 -55 -8 -110 -17 -121 -20 -12 -3 -38 -30 -59 -60 -39 -56 -49 -63 -60
-45 -23 37 -150 -18 -350 -154 -124 -83 -307 -267 -381 -381 -129 -199 -196
-436 -179 -635 l6 -75 -51 -68 c-136 -179 -290 -446 -290 -502 0 -33 42 -75
75 -75 46 0 64 19 115 119 40 82 187 312 244 384 14 18 19 18 147 1 176 -22
419 -16 531 14 130 35 249 107 262 157 6 23 10 25 40 20 61 -12 144 11 205 57
82 61 290 274 307 314 13 31 13 39 1 64 l-15 28 51 7 c42 6 57 15 95 53 60 63
130 168 189 287 73 147 88 191 75 219 -9 21 -6 29 28 65 78 82 269 520 270
617 0 41 -26 72 -67 80 -30 6 -39 0 -121 -79z m-112 -358 c-69 -137 -81 -151
-193 -227 -152 -103 -170 -133 -121 -191 21 -25 33 -31 65 -31 21 0 39 -2 39
-5 0 -25 -132 -238 -164 -264 -6 -5 -90 -17 -186 -26 -96 -9 -186 -22 -200
-29 -31 -14 -47 -57 -34 -93 7 -22 29 -38 102 -73 l92 -45 -72 -71 c-146 -141
-139 -137 -238 -132 -67 4 -112 15 -205 48 -161 56 -177 58 -209 26 -48 -48
-31 -99 62 -188 33 -32 57 -60 54 -62 -4 -2 -32 -10 -62 -17 -74 -19 -444 -19
-462 -1 -10 10 23 48 167 190 99 98 241 226 315 286 153 122 434 314 588 400
106 60 122 76 122 121 0 39 -16 62 -50 74 -27 9 -39 6 -103 -28 -306 -161
-687 -444 -971 -721 l-159 -155 7 60 c4 33 22 104 40 158 57 166 157 309 310
445 80 71 215 167 223 159 2 -3 -1 -31 -7 -63 -11 -51 -10 -59 8 -83 25 -34
64 -48 95 -34 15 7 73 83 142 185 65 95 119 175 120 176 2 2 53 12 114 23 251
43 501 121 686 214 66 33 121 60 123 59 2 -1 -15 -39 -38 -85z"/>
<path d="M1945 3415 c-16 -15 -25 -36 -25 -55 0 -19 9 -40 25 -55 l24 -25 751
0 751 0 24 25 c33 32 33 78 0 110 l-24 25 -751 0 -751 0 -24 -25z"/>
<path d="M1945 3015 c-16 -15 -25 -36 -25 -55 0 -19 9 -40 25 -55 l24 -25 551
0 551 0 24 25 c16 15 25 36 25 55 0 19 -9 40 -25 55 l-24 25 -551 0 -551 0
-24 -25z"/>
</g>
</svg>
